<svg width="27" height="27" viewBox="0 0 27 27" fill="none" xmlns="http://www.w3.org/2000/svg">
<path d="M14.5652 16.2319L13.9638 16.8333L15.1666 18.0361L15.768 17.4347L14.5652 16.2319ZM18.4999 13.5L19.1013 14.1014L19.7027 13.5L19.1013 12.8986L18.4999 13.5ZM15.768 9.56523L15.1666 8.96382L13.9638 10.1666L14.5652 10.7681L15.768 9.56523ZM15.768 17.4347L19.1013 14.1014L17.8985 12.8986L14.5652 16.2319L15.768 17.4347ZM19.1013 12.8986L15.768 9.56523L14.5652 10.7681L17.8985 14.1014L19.1013 12.8986ZM18.4999 12.6495H7.66658V14.3505H18.4999V12.6495ZM13.4999 24.3161C7.52633 24.3161 2.68378 19.4736 2.68378 13.5H0.982724C0.982724 20.413 6.58686 26.0172 13.4999 26.0172V24.3161ZM24.3161 13.5C24.3161 19.4736 19.4735 24.3161 13.4999 24.3161V26.0172C20.413 26.0172 26.0171 20.413 26.0171 13.5H24.3161ZM13.4999 2.68384C19.4735 2.68384 24.3161 7.52639 24.3161 13.5H26.0171C26.0171 6.58692 20.413 0.982785 13.4999 0.982785V2.68384ZM13.4999 0.982785C6.58686 0.982785 0.982724 6.58692 0.982724 13.5H2.68378C2.68378 7.52639 7.52633 2.68384 13.4999 2.68384V0.982785Z" fill="white"/>
</svg>
