<svg width="35" height="35" viewBox="0 0 35 35" fill="none" xmlns="http://www.w3.org/2000/svg">
<path d="M19.3122 21.6481L18.7936 22.1666L19.8307 23.2037L20.3493 22.6852L19.3122 21.6481ZM24.4974 17.5L25.0159 18.0185L25.5345 17.5L25.0159 16.9814L24.4974 17.5ZM20.3493 12.3147L19.8307 11.7962L18.7936 12.8333L19.3122 13.3518L20.3493 12.3147ZM20.3493 22.6852L25.0159 18.0185L23.9788 16.9814L19.3122 21.6481L20.3493 22.6852ZM25.0159 16.9814L20.3493 12.3147L19.3122 13.3518L23.9788 18.0185L25.0159 16.9814ZM24.4974 16.7666H9.33073V18.2333H24.4974V16.7666ZM17.4974 33.1C8.88175 33.1 1.8974 26.1156 1.8974 17.5H0.430729C0.430729 26.9256 8.07174 34.5666 17.4974 34.5666V33.1ZM33.0974 17.5C33.0974 26.1156 26.113 33.1 17.4974 33.1V34.5666C26.9231 34.5666 34.5641 26.9256 34.5641 17.5H33.0974ZM17.4974 1.89996C26.113 1.89996 33.0974 8.88432 33.0974 17.5H34.5641C34.5641 8.0743 26.9231 0.433293 17.4974 0.433293V1.89996ZM17.4974 0.433293C8.07174 0.433293 0.430729 8.0743 0.430729 17.5H1.8974C1.8974 8.88432 8.88175 1.89996 17.4974 1.89996V0.433293Z" fill="#FA5621"/>
</svg>
