<svg width="9" height="9" viewBox="0 0 9 9" fill="none" xmlns="http://www.w3.org/2000/svg">
<path d="M1.5 0C0.671573 0 0 0.671573 0 1.5V2.7C0 6.17939 2.82061 9 6.3 9H7.5C8.32843 9 9 8.32843 9 7.5V6.67082C9 6.32993 8.8074 6.01829 8.50249 5.86584L7.05293 5.14106C6.56306 4.89612 5.96982 5.14185 5.79663 5.66144L5.61797 6.19742C5.55008 6.40106 5.34118 6.5223 5.13069 6.4802C3.81317 6.21669 2.78331 5.18683 2.5198 3.86931C2.47771 3.65882 2.59894 3.44992 2.80258 3.38203L3.46776 3.16031C3.91391 3.01159 4.17035 2.54445 4.05629 2.08821L3.70466 0.681718C3.6045 0.281068 3.24451 0 2.83153 0H1.5Z" fill="#FA5621"/>
</svg>
